<svg width="25" height="25" viewBox="0 0 25 25" fill="none" xmlns="http://www.w3.org/2000/svg">
<path d="M0 12.5C0 2.20625 2.20625 0 12.5 0C22.7938 0 25 2.20625 25 12.5C25 22.7938 22.7938 25 12.5 25C2.20625 25 0 22.7938 0 12.5Z" fill="url(#paint0_linear_305_52)"/>
<path d="M8.10102 16.6666C10.6231 16.6666 12.1509 15.096 12.1509 12.4918C12.1509 9.89581 10.6231 8.33331 8.12527 8.33331H5.16667V16.6666H8.10102ZM6.91677 15.157V9.84292H8.0323C9.58435 9.84292 10.4048 10.6404 10.4048 12.4918C10.4048 14.3514 9.58435 15.157 8.02826 15.157H6.91677Z" fill="#FEFEFE"/>
<path d="M13.4473 16.6666H16.9839C18.8431 16.6666 19.8333 15.6901 19.8333 14.3636C19.8333 13.1307 18.9563 12.386 18.0145 12.3413V12.2599C18.8754 12.0646 19.51 11.4502 19.51 10.4695C19.51 9.22036 18.5885 8.33331 16.7616 8.33331H13.4473V16.6666ZM15.1974 15.2262V13.0127H16.6646C17.5053 13.0127 18.0267 13.501 18.0267 14.1886C18.0267 14.8152 17.6023 15.2262 16.6242 15.2262H15.1974ZM15.1974 11.8205V9.75747H16.5271C17.3032 9.75747 17.7437 10.1603 17.7437 10.7625C17.7437 11.4217 17.2102 11.8205 16.4948 11.8205H15.1974Z" fill="#FEFEFE"/>
<defs>
<linearGradient id="paint0_linear_305_52" x1="12.5" y1="0" x2="12.5" y2="25" gradientUnits="userSpaceOnUse">
<stop stop-color="#00C2FF"/>
<stop offset="0.682292" stop-color="#0066FF"/>
<stop offset="1" stop-color="#001AFF"/>
</linearGradient>
</defs>
</svg>
