<svg width="25" height="25" viewBox="0 0 25 25" fill="none" xmlns="http://www.w3.org/2000/svg">
<g clip-path="url(#clip0_1927_9)">
<path d="M23.9795 4.72641C25.7376 7.82427 25.1017 12.5204 23.0069 16.6838C20.9121 20.8669 17.3959 24.5173 13.1315 24.9514C8.86705 25.4052 3.87321 22.6428 1.55397 18.3215C-0.765268 14.02 -0.409898 8.15973 2.09638 4.608C4.58395 1.07605 9.22241 -0.127589 13.6365 0.0105329C18.0318 0.148655 22.2214 1.64826 23.9795 4.72641Z" fill="#FF1744"/>
<path d="M4.17752 6.69434V17.2728H6.98742V11.1158H7.0701L9.42547 17.1902H11.1196L13.4751 11.1572H13.5577V17.2728H16.3676V6.69434H12.7932L10.3346 12.6861H10.2106L7.75192 6.69434H4.17752ZM19.3196 17.4381C20.0789 17.4381 20.7555 16.7976 20.7658 15.9918C20.7555 15.2067 20.0789 14.5662 19.3196 14.5662C18.519 14.5662 17.863 15.2067 17.8733 15.9918C17.863 16.7976 18.519 17.4381 19.3196 17.4381Z" fill="white"/>
</g>
<defs>
<clipPath id="clip0_1927_9">
<rect width="25" height="25" fill="white"/>
</clipPath>
</defs>
</svg>
