<svg width="25" height="25" viewBox="0 0 25 25" fill="none" xmlns="http://www.w3.org/2000/svg">
<g clip-path="url(#clip0_1928_15)">
<path d="M23.9795 4.7264C25.7376 7.82428 25.1017 12.5204 23.0069 16.6838C20.9121 20.8669 17.3959 24.5173 13.1315 24.9514C8.86706 25.4052 3.87321 22.6428 1.55397 18.3215C-0.765266 14.02 -0.409899 8.15972 2.09638 4.60801C4.58395 1.07604 9.22242 -0.127589 13.6365 0.010533C18.0318 0.148655 22.2214 1.64826 23.9795 4.7264Z" fill="#304FFE"/>
<path d="M6.42892 17.2728V6.69434H10.995C11.7802 6.69434 12.4671 6.84929 13.056 7.15921C13.6448 7.46913 14.1028 7.90474 14.43 8.46603C14.7571 9.02733 14.9207 9.68332 14.9207 10.434C14.9207 11.1916 14.7519 11.8476 14.4145 12.402C14.0804 12.9564 13.6104 13.3834 13.0043 13.683C12.4017 13.9826 11.6975 14.1324 10.8917 14.1324H8.16446V11.9009H10.3132C10.6507 11.9009 10.9382 11.8424 11.1758 11.7253C11.4169 11.6048 11.6011 11.4344 11.7285 11.214C11.8594 10.9936 11.9248 10.7336 11.9248 10.434C11.9248 10.131 11.8594 9.87271 11.7285 9.65921C11.6011 9.44227 11.4169 9.27698 11.1758 9.16334C10.9382 9.04626 10.6507 8.98772 10.3132 8.98772H9.30083V17.2728H6.42892Z" fill="white"/>
<path d="M17.0681 17.4381C16.6687 17.4381 16.326 17.2987 16.0402 17.0197C15.7579 16.7374 15.6184 16.3947 15.6218 15.9919C15.6184 15.5993 15.7579 15.2636 16.0402 14.9846C16.326 14.7057 16.6687 14.5662 17.0681 14.5662C17.4469 14.5662 17.7809 14.7057 18.0702 14.9846C18.3629 15.2636 18.511 15.5993 18.5144 15.9919C18.511 16.2605 18.4404 16.5049 18.3026 16.7253C18.1683 16.9423 17.9927 17.1162 17.7758 17.247C17.5588 17.3744 17.323 17.4381 17.0681 17.4381Z" fill="white"/>
</g>
<defs>
<clipPath id="clip0_1928_15">
<rect width="25" height="25" fill="white"/>
</clipPath>
</defs>
</svg>
